solid OpenSCAD_Model
  facet normal -1 0 0
    outer loop
      vertex 0 3.25 0
      vertex 0 2.375 1.865
      vertex 0 3.25 2.25
    endloop
  endfacet
  facet normal -1 0 0
    outer loop
      vertex 0 3.25 0
      vertex 0 1.625 1.865
      vertex 0 2.375 1.865
    endloop
  endfacet
  facet normal -1 0 0
    outer loop
      vertex 0 0 2.25
      vertex 0 1.625 1.865
      vertex 0 0 0
    endloop
  endfacet
  facet normal -1 0 0
    outer loop
      vertex 0 0 0
      vertex 0 1.625 1.865
      vertex 0 3.25 0
    endloop
  endfacet
  facet normal -1 0 0
    outer loop
      vertex 0 2.375 2.195
      vertex 0 3.25 2.25
      vertex 0 2.375 1.865
    endloop
  endfacet
  facet normal -1 0 0
    outer loop
      vertex 0 1.625 2.195
      vertex 0 3.25 2.25
      vertex 0 2.375 2.195
    endloop
  endfacet
  facet normal -1 0 0
    outer loop
      vertex 0 1.625 2.195
      vertex 0 0 2.25
      vertex 0 3.25 2.25
    endloop
  endfacet
  facet normal -1 0 0
    outer loop
      vertex 0 1.625 1.865
      vertex 0 0 2.25
      vertex 0 1.625 2.195
    endloop
  endfacet
  facet normal 0 0 1
    outer loop
      vertex 5 3.25 2.25
      vertex 4.875 2.875 2.25
      vertex 5 0 2.25
    endloop
  endfacet
  facet normal 0 0 1
    outer loop
      vertex 5 3.25 2.25
      vertex 4.625 3.125 2.25
      vertex 4.875 2.875 2.25
    endloop
  endfacet
  facet normal 0 0 1
    outer loop
      vertex 5 3.25 2.25
      vertex 0.375 3.125 2.25
      vertex 4.625 3.125 2.25
    endloop
  endfacet
  facet normal 0 0 1
    outer loop
      vertex 0.375 3.125 2.25
      vertex 0.125 2.875 2.25
      vertex 0.375 2.875 2.25
    endloop
  endfacet
  facet normal 0 0 1
    outer loop
      vertex 0 0 2.25
      vertex 0.125 2.875 2.25
      vertex 0 3.25 2.25
    endloop
  endfacet
  facet normal 0 0 1
    outer loop
      vertex 0.375 3.125 2.25
      vertex 0 3.25 2.25
      vertex 0.125 2.875 2.25
    endloop
  endfacet
  facet normal -0 0 1
    outer loop
      vertex 0 3.25 2.25
      vertex 0.375 3.125 2.25
      vertex 5 3.25 2.25
    endloop
  endfacet
  facet normal -0 0 1
    outer loop
      vertex 4.875 0.375 2.25
      vertex 5 0 2.25
      vertex 4.875 2.875 2.25
    endloop
  endfacet
  facet normal 0 0 1
    outer loop
      vertex 4.625 0.125 2.25
      vertex 4.875 0.375 2.25
      vertex 4.625 0.375 2.25
    endloop
  endfacet
  facet normal 0 0 1
    outer loop
      vertex 4.875 0.375 2.25
      vertex 4.625 0.125 2.25
      vertex 5 0 2.25
    endloop
  endfacet
  facet normal 0 0 1
    outer loop
      vertex 3 0 2.25
      vertex 4.625 0.125 2.25
      vertex 3 0.125 2.25
    endloop
  endfacet
  facet normal 0 0 1
    outer loop
      vertex 4.625 0.125 2.25
      vertex 3 0 2.25
      vertex 5 0 2.25
    endloop
  endfacet
  facet normal 0 0 1
    outer loop
      vertex 4.875 2.875 2.25
      vertex 4.625 3.125 2.25
      vertex 4.625 2.875 2.25
    endloop
  endfacet
  facet normal -0 0 1
    outer loop
      vertex 0.125 0.125 2.25
      vertex 1.8 0 2.25
      vertex 1.8 0.125 2.25
    endloop
  endfacet
  facet normal 0 0 1
    outer loop
      vertex 0.125 0.125 2.25
      vertex 0 0 2.25
      vertex 1.8 0 2.25
    endloop
  endfacet
  facet normal 0 0 1
    outer loop
      vertex 0.125 2.875 2.25
      vertex 0 0 2.25
      vertex 0.125 0.125 2.25
    endloop
  endfacet
  facet normal 1 -0 0
    outer loop
      vertex 5 0 2.25
      vertex 5 3.25 0
      vertex 5 3.25 2.25
    endloop
  endfacet
  facet normal 1 0 0
    outer loop
      vertex 5 3.25 0
      vertex 5 0 2.25
      vertex 5 0 0
    endloop
  endfacet
  facet normal 0 0 -1
    outer loop
      vertex 0 0 0
      vertex 5 3.25 0
      vertex 5 0 0
    endloop
  endfacet
  facet normal -0 0 -1
    outer loop
      vertex 5 3.25 0
      vertex 0 0 0
      vertex 0 3.25 0
    endloop
  endfacet
  facet normal 0 -1 0
    outer loop
      vertex 0 0 2.25
      vertex 1.8 0 1.9
      vertex 1.8 0 2.25
    endloop
  endfacet
  facet normal 0 -1 -0
    outer loop
      vertex 1.8 0 1.9
      vertex 0 0 0
      vertex 3 0 1.9
    endloop
  endfacet
  facet normal 0 -1 0
    outer loop
      vertex 0 0 0
      vertex 1.8 0 1.9
      vertex 0 0 2.25
    endloop
  endfacet
  facet normal 0 -1 0
    outer loop
      vertex 3 0 1.9
      vertex 5 0 2.25
      vertex 3 0 2.25
    endloop
  endfacet
  facet normal 0 -1 0
    outer loop
      vertex 5 0 0
      vertex 3 0 1.9
      vertex 0 0 0
    endloop
  endfacet
  facet normal 0 -1 0
    outer loop
      vertex 3 0 1.9
      vertex 5 0 0
      vertex 5 0 2.25
    endloop
  endfacet
  facet normal 0 1 0
    outer loop
      vertex 5 3.25 2.25
      vertex 1.625 3.25 2.11875
      vertex 0 3.25 2.25
    endloop
  endfacet
  facet normal 0 1 0
    outer loop
      vertex 5 3.25 2.25
      vertex 1.625 3.25 1.93125
      vertex 1.625 3.25 2.11875
    endloop
  endfacet
  facet normal 0 1 0
    outer loop
      vertex 0 3.25 0
      vertex 1.625 3.25 1.93125
      vertex 5 3.25 0
    endloop
  endfacet
  facet normal 0 1 -0
    outer loop
      vertex 5 3.25 0
      vertex 1.625 3.25 1.93125
      vertex 5 3.25 2.25
    endloop
  endfacet
  facet normal 0 1 -0
    outer loop
      vertex 1.125 3.25 2.11875
      vertex 0 3.25 2.25
      vertex 1.625 3.25 2.11875
    endloop
  endfacet
  facet normal 0 1 -0
    outer loop
      vertex 1.125 3.25 1.93125
      vertex 0 3.25 2.25
      vertex 1.125 3.25 2.11875
    endloop
  endfacet
  facet normal 0 1 0
    outer loop
      vertex 1.625 3.25 1.93125
      vertex 0 3.25 0
      vertex 1.125 3.25 1.93125
    endloop
  endfacet
  facet normal 0 1 0
    outer loop
      vertex 1.125 3.25 1.93125
      vertex 0 3.25 0
      vertex 0 3.25 2.25
    endloop
  endfacet
  facet normal 1 0 0
    outer loop
      vertex 0.125 2.875 2.25
      vertex 0.125 2.375 2.195
      vertex 0.125 2.875 2.125
    endloop
  endfacet
  facet normal 1 0 0
    outer loop
      vertex 0.125 2.875 2.25
      vertex 0.125 1.625 2.195
      vertex 0.125 2.375 2.195
    endloop
  endfacet
  facet normal 1 0 0
    outer loop
      vertex 0.125 1.625 2.195
      vertex 0.125 0.125 2.25
      vertex 0.125 1.625 1.865
    endloop
  endfacet
  facet normal 1 -0 0
    outer loop
      vertex 0.125 0.125 2.25
      vertex 0.125 1.625 2.195
      vertex 0.125 2.875 2.25
    endloop
  endfacet
  facet normal 1 0 0
    outer loop
      vertex 0.125 2.375 1.865
      vertex 0.125 3.125 2.125
      vertex 0.125 2.875 2.125
    endloop
  endfacet
  facet normal 1 0 0
    outer loop
      vertex 0.125 2.375 1.865
      vertex 0.125 2.875 2.125
      vertex 0.125 2.375 2.195
    endloop
  endfacet
  facet normal 1 0 0
    outer loop
      vertex 0.125 3.125 2.125
      vertex 0.125 2.375 1.865
      vertex 0.125 3.125 0.125
    endloop
  endfacet
  facet normal 1 -0 0
    outer loop
      vertex 0.125 1.625 1.865
      vertex 0.125 3.125 0.125
      vertex 0.125 2.375 1.865
    endloop
  endfacet
  facet normal 1 0 0
    outer loop
      vertex 0.125 0.125 0.125
      vertex 0.125 1.625 1.865
      vertex 0.125 0.125 2.25
    endloop
  endfacet
  facet normal 1 0 0
    outer loop
      vertex 0.125 1.625 1.865
      vertex 0.125 0.125 0.125
      vertex 0.125 3.125 0.125
    endloop
  endfacet
  facet normal -1 0 0
    outer loop
      vertex 4.875 0.375 0.125
      vertex 4.875 2.875 2.25
      vertex 4.875 2.875 0.125
    endloop
  endfacet
  facet normal -1 -0 0
    outer loop
      vertex 4.875 2.875 2.25
      vertex 4.875 0.375 0.125
      vertex 4.875 0.375 2.25
    endloop
  endfacet
  facet normal 0 -1 0
    outer loop
      vertex 0.125 3.125 0.125
      vertex 0.375 3.125 2.125
      vertex 0.125 3.125 2.125
    endloop
  endfacet
  facet normal 0 -1 0
    outer loop
      vertex 0.375 3.125 2.125
      vertex 1.125 3.125 1.93125
      vertex 1.125 3.125 2.11875
    endloop
  endfacet
  facet normal 0 -1 -0
    outer loop
      vertex 1.125 3.125 1.93125
      vertex 0.125 3.125 0.125
      vertex 1.625 3.125 1.93125
    endloop
  endfacet
  facet normal 0 -1 -0
    outer loop
      vertex 0.375 3.125 2.125
      vertex 0.125 3.125 0.125
      vertex 1.125 3.125 1.93125
    endloop
  endfacet
  facet normal 0 -1 0
    outer loop
      vertex 1.125 3.125 2.11875
      vertex 0.375 3.125 2.25
      vertex 0.375 3.125 2.125
    endloop
  endfacet
  facet normal 0 -1 0
    outer loop
      vertex 1.625 3.125 2.11875
      vertex 0.375 3.125 2.25
      vertex 1.125 3.125 2.11875
    endloop
  endfacet
  facet normal 0 -1 0
    outer loop
      vertex 0.375 3.125 2.25
      vertex 1.625 3.125 2.11875
      vertex 4.625 3.125 2.25
    endloop
  endfacet
  facet normal 0 -1 0
    outer loop
      vertex 1.625 3.125 1.93125
      vertex 4.625 3.125 2.25
      vertex 1.625 3.125 2.11875
    endloop
  endfacet
  facet normal 0 -1 0
    outer loop
      vertex 4.625 3.125 0.125
      vertex 1.625 3.125 1.93125
      vertex 0.125 3.125 0.125
    endloop
  endfacet
  facet normal 0 -1 0
    outer loop
      vertex 1.625 3.125 1.93125
      vertex 4.625 3.125 0.125
      vertex 4.625 3.125 2.25
    endloop
  endfacet
  facet normal -0 0 1
    outer loop
      vertex 0.25 2.65 0.125
      vertex 0.5 0.5 0.125
      vertex 0.5 2.65 0.125
    endloop
  endfacet
  facet normal 0 0 1
    outer loop
      vertex 0.5 0.5 0.125
      vertex 0.25 2.65 0.125
      vertex 0.25 0.5 0.125
    endloop
  endfacet
  facet normal -0 0 1
    outer loop
      vertex 3 2.65 0.125
      vertex 3.25 0.5 0.125
      vertex 3.25 2.65 0.125
    endloop
  endfacet
  facet normal 0 0 1
    outer loop
      vertex 3.25 0.5 0.125
      vertex 3 2.65 0.125
      vertex 3 0.5 0.125
    endloop
  endfacet
  facet normal -0 0 1
    outer loop
      vertex 3.25 2.9 0.125
      vertex 4.625 2.875 0.125
      vertex 4.625 3.125 0.125
    endloop
  endfacet
  facet normal 0 0 1
    outer loop
      vertex 4.625 2.875 0.125
      vertex 3.25 2.65 0.125
      vertex 4.625 0.375 0.125
    endloop
  endfacet
  facet normal 0 0 1
    outer loop
      vertex 4.625 2.875 0.125
      vertex 3.25 2.9 0.125
      vertex 3.25 2.65 0.125
    endloop
  endfacet
  facet normal 0 0 1
    outer loop
      vertex 4.625 3.125 0.125
      vertex 3 2.9 0.125
      vertex 3.25 2.9 0.125
    endloop
  endfacet
  facet normal 0 0 1
    outer loop
      vertex 0.5 2.65 0.125
      vertex 3 2.65 0.125
      vertex 3 2.9 0.125
    endloop
  endfacet
  facet normal 0 0 1
    outer loop
      vertex 3 2.65 0.125
      vertex 0.5 2.65 0.125
      vertex 3 0.5 0.125
    endloop
  endfacet
  facet normal 0 0 1
    outer loop
      vertex 0.5 2.65 0.125
      vertex 3 2.9 0.125
      vertex 0.5 2.9 0.125
    endloop
  endfacet
  facet normal -0 0 1
    outer loop
      vertex 0.125 3.125 0.125
      vertex 3 2.9 0.125
      vertex 4.625 3.125 0.125
    endloop
  endfacet
  facet normal 0 0 1
    outer loop
      vertex 3 2.9 0.125
      vertex 0.125 3.125 0.125
      vertex 0.5 2.9 0.125
    endloop
  endfacet
  facet normal 0 0 1
    outer loop
      vertex 0.125 3.125 0.125
      vertex 0.25 2.65 0.125
      vertex 0.25 2.9 0.125
    endloop
  endfacet
  facet normal 0 0 1
    outer loop
      vertex 0.125 0.125 0.125
      vertex 0.25 2.65 0.125
      vertex 0.125 3.125 0.125
    endloop
  endfacet
  facet normal 0 0 1
    outer loop
      vertex 0.25 2.65 0.125
      vertex 0.125 0.125 0.125
      vertex 0.25 0.5 0.125
    endloop
  endfacet
  facet normal 0 0 1
    outer loop
      vertex 0.5 2.9 0.125
      vertex 0.125 3.125 0.125
      vertex 0.25 2.9 0.125
    endloop
  endfacet
  facet normal -0 0 1
    outer loop
      vertex 4.625 2.875 0.125
      vertex 4.875 0.375 0.125
      vertex 4.875 2.875 0.125
    endloop
  endfacet
  facet normal 0 0 1
    outer loop
      vertex 4.875 0.375 0.125
      vertex 4.625 2.875 0.125
      vertex 4.625 0.375 0.125
    endloop
  endfacet
  facet normal -0 0 1
    outer loop
      vertex 3.25 0.5 0.125
      vertex 4.625 0.375 0.125
      vertex 3.25 2.65 0.125
    endloop
  endfacet
  facet normal 0 0 1
    outer loop
      vertex 3.25 0.25 0.125
      vertex 4.625 0.375 0.125
      vertex 3.25 0.5 0.125
    endloop
  endfacet
  facet normal 0 0 1
    outer loop
      vertex 4.625 0.375 0.125
      vertex 3.25 0.25 0.125
      vertex 4.625 0.125 0.125
    endloop
  endfacet
  facet normal -0 0 1
    outer loop
      vertex 3 0.25 0.125
      vertex 4.625 0.125 0.125
      vertex 3.25 0.25 0.125
    endloop
  endfacet
  facet normal 0 0 1
    outer loop
      vertex 0.5 0.5 0.125
      vertex 3 0.5 0.125
      vertex 0.5 2.65 0.125
    endloop
  endfacet
  facet normal 0 0 1
    outer loop
      vertex 3 0.5 0.125
      vertex 0.5 0.5 0.125
      vertex 3 0.25 0.125
    endloop
  endfacet
  facet normal 0 0 1
    outer loop
      vertex 0.5 0.25 0.125
      vertex 3 0.25 0.125
      vertex 0.5 0.5 0.125
    endloop
  endfacet
  facet normal 0 0 1
    outer loop
      vertex 0.125 0.125 0.125
      vertex 3 0.25 0.125
      vertex 0.5 0.25 0.125
    endloop
  endfacet
  facet normal 0 0 1
    outer loop
      vertex 0.125 0.125 0.125
      vertex 0.5 0.25 0.125
      vertex 0.25 0.25 0.125
    endloop
  endfacet
  facet normal 0 0 1
    outer loop
      vertex 3 0.25 0.125
      vertex 0.125 0.125 0.125
      vertex 4.625 0.125 0.125
    endloop
  endfacet
  facet normal 0 0 1
    outer loop
      vertex 0.25 0.5 0.125
      vertex 0.125 0.125 0.125
      vertex 0.25 0.25 0.125
    endloop
  endfacet
  facet normal 0 1 0
    outer loop
      vertex 4.625 0.125 2.25
      vertex 3 0.125 1.9
      vertex 3 0.125 2.25
    endloop
  endfacet
  facet normal 0 1 0
    outer loop
      vertex 3 0.125 1.9
      vertex 4.625 0.125 0.125
      vertex 1.8 0.125 1.9
    endloop
  endfacet
  facet normal 0 1 -0
    outer loop
      vertex 4.625 0.125 0.125
      vertex 3 0.125 1.9
      vertex 4.625 0.125 2.25
    endloop
  endfacet
  facet normal 0 1 -0
    outer loop
      vertex 1.8 0.125 1.9
      vertex 0.125 0.125 2.25
      vertex 1.8 0.125 2.25
    endloop
  endfacet
  facet normal 0 1 0
    outer loop
      vertex 0.125 0.125 0.125
      vertex 1.8 0.125 1.9
      vertex 4.625 0.125 0.125
    endloop
  endfacet
  facet normal 0 1 0
    outer loop
      vertex 1.8 0.125 1.9
      vertex 0.125 0.125 0.125
      vertex 0.125 0.125 2.25
    endloop
  endfacet
  facet normal 0 0 -1
    outer loop
      vertex 0 1.625 2.195
      vertex 0.125 2.375 2.195
      vertex 0.125 1.625 2.195
    endloop
  endfacet
  facet normal -0 0 -1
    outer loop
      vertex 0.125 2.375 2.195
      vertex 0 1.625 2.195
      vertex 0 2.375 2.195
    endloop
  endfacet
  facet normal -0 0 1
    outer loop
      vertex 0 2.375 1.865
      vertex 0.125 1.625 1.865
      vertex 0.125 2.375 1.865
    endloop
  endfacet
  facet normal 0 0 1
    outer loop
      vertex 0.125 1.625 1.865
      vertex 0 2.375 1.865
      vertex 0 1.625 1.865
    endloop
  endfacet
  facet normal 0 1 -0
    outer loop
      vertex 0.125 1.625 1.865
      vertex 0 1.625 2.195
      vertex 0.125 1.625 2.195
    endloop
  endfacet
  facet normal 0 1 0
    outer loop
      vertex 0 1.625 2.195
      vertex 0.125 1.625 1.865
      vertex 0 1.625 1.865
    endloop
  endfacet
  facet normal 0 -1 0
    outer loop
      vertex 0 2.375 1.865
      vertex 0.125 2.375 2.195
      vertex 0 2.375 2.195
    endloop
  endfacet
  facet normal 0 -1 -0
    outer loop
      vertex 0.125 2.375 2.195
      vertex 0 2.375 1.865
      vertex 0.125 2.375 1.865
    endloop
  endfacet
  facet normal 1 -0 0
    outer loop
      vertex 1.125 3.125 2.11875
      vertex 1.125 3.25 1.93125
      vertex 1.125 3.25 2.11875
    endloop
  endfacet
  facet normal 1 0 0
    outer loop
      vertex 1.125 3.25 1.93125
      vertex 1.125 3.125 2.11875
      vertex 1.125 3.125 1.93125
    endloop
  endfacet
  facet normal 0 0 -1
    outer loop
      vertex 1.125 3.125 2.11875
      vertex 1.625 3.25 2.11875
      vertex 1.625 3.125 2.11875
    endloop
  endfacet
  facet normal -0 0 -1
    outer loop
      vertex 1.625 3.25 2.11875
      vertex 1.125 3.125 2.11875
      vertex 1.125 3.25 2.11875
    endloop
  endfacet
  facet normal -1 0 0
    outer loop
      vertex 1.625 3.125 1.93125
      vertex 1.625 3.25 2.11875
      vertex 1.625 3.25 1.93125
    endloop
  endfacet
  facet normal -1 -0 0
    outer loop
      vertex 1.625 3.25 2.11875
      vertex 1.625 3.125 1.93125
      vertex 1.625 3.125 2.11875
    endloop
  endfacet
  facet normal -0 0 1
    outer loop
      vertex 1.125 3.25 1.93125
      vertex 1.625 3.125 1.93125
      vertex 1.625 3.25 1.93125
    endloop
  endfacet
  facet normal 0 0 1
    outer loop
      vertex 1.625 3.125 1.93125
      vertex 1.125 3.25 1.93125
      vertex 1.125 3.125 1.93125
    endloop
  endfacet
  facet normal 1 -0 0
    outer loop
      vertex 1.8 0 2.25
      vertex 1.8 0.125 1.9
      vertex 1.8 0.125 2.25
    endloop
  endfacet
  facet normal 1 0 0
    outer loop
      vertex 1.8 0.125 1.9
      vertex 1.8 0 2.25
      vertex 1.8 0 1.9
    endloop
  endfacet
  facet normal -1 0 0
    outer loop
      vertex 3 0 1.9
      vertex 3 0.125 2.25
      vertex 3 0.125 1.9
    endloop
  endfacet
  facet normal -1 -0 0
    outer loop
      vertex 3 0.125 2.25
      vertex 3 0 1.9
      vertex 3 0 2.25
    endloop
  endfacet
  facet normal -0 0 1
    outer loop
      vertex 1.8 0.125 1.9
      vertex 3 0 1.9
      vertex 3 0.125 1.9
    endloop
  endfacet
  facet normal 0 0 1
    outer loop
      vertex 3 0 1.9
      vertex 1.8 0.125 1.9
      vertex 1.8 0 1.9
    endloop
  endfacet
  facet normal -1 0 0
    outer loop
      vertex 0.25 0.25 0.125
      vertex 0.25 0.5 1.9
      vertex 0.25 0.5 0.125
    endloop
  endfacet
  facet normal -1 -0 0
    outer loop
      vertex 0.25 0.5 1.9
      vertex 0.25 0.25 0.125
      vertex 0.25 0.25 1.9
    endloop
  endfacet
  facet normal -0 0 1
    outer loop
      vertex 0.25 0.5 1.9
      vertex 0.5 0.25 1.9
      vertex 0.5 0.5 1.9
    endloop
  endfacet
  facet normal 0 0 1
    outer loop
      vertex 0.5 0.25 1.9
      vertex 0.25 0.5 1.9
      vertex 0.25 0.25 1.9
    endloop
  endfacet
  facet normal 1 -0 0
    outer loop
      vertex 0.5 0.25 1.9
      vertex 0.5 0.5 0.125
      vertex 0.5 0.5 1.9
    endloop
  endfacet
  facet normal 1 0 0
    outer loop
      vertex 0.5 0.5 0.125
      vertex 0.5 0.25 1.9
      vertex 0.5 0.25 0.125
    endloop
  endfacet
  facet normal 0 -1 0
    outer loop
      vertex 0.25 0.25 0.125
      vertex 0.5 0.25 1.9
      vertex 0.25 0.25 1.9
    endloop
  endfacet
  facet normal 0 -1 -0
    outer loop
      vertex 0.5 0.25 1.9
      vertex 0.25 0.25 0.125
      vertex 0.5 0.25 0.125
    endloop
  endfacet
  facet normal 0 1 -0
    outer loop
      vertex 0.5 0.5 0.125
      vertex 0.25 0.5 1.9
      vertex 0.5 0.5 1.9
    endloop
  endfacet
  facet normal 0 1 0
    outer loop
      vertex 0.25 0.5 1.9
      vertex 0.5 0.5 0.125
      vertex 0.25 0.5 0.125
    endloop
  endfacet
  facet normal -1 0 0
    outer loop
      vertex 3 0.25 0.125
      vertex 3 0.5 1.9
      vertex 3 0.5 0.125
    endloop
  endfacet
  facet normal -1 -0 0
    outer loop
      vertex 3 0.5 1.9
      vertex 3 0.25 0.125
      vertex 3 0.25 1.9
    endloop
  endfacet
  facet normal -0 0 1
    outer loop
      vertex 3 0.5 1.9
      vertex 3.25 0.25 1.9
      vertex 3.25 0.5 1.9
    endloop
  endfacet
  facet normal 0 0 1
    outer loop
      vertex 3.25 0.25 1.9
      vertex 3 0.5 1.9
      vertex 3 0.25 1.9
    endloop
  endfacet
  facet normal 1 -0 0
    outer loop
      vertex 3.25 0.25 1.9
      vertex 3.25 0.5 0.125
      vertex 3.25 0.5 1.9
    endloop
  endfacet
  facet normal 1 0 0
    outer loop
      vertex 3.25 0.5 0.125
      vertex 3.25 0.25 1.9
      vertex 3.25 0.25 0.125
    endloop
  endfacet
  facet normal 0 -1 0
    outer loop
      vertex 3 0.25 0.125
      vertex 3.25 0.25 1.9
      vertex 3 0.25 1.9
    endloop
  endfacet
  facet normal 0 -1 -0
    outer loop
      vertex 3.25 0.25 1.9
      vertex 3 0.25 0.125
      vertex 3.25 0.25 0.125
    endloop
  endfacet
  facet normal 0 1 -0
    outer loop
      vertex 3.25 0.5 0.125
      vertex 3 0.5 1.9
      vertex 3.25 0.5 1.9
    endloop
  endfacet
  facet normal 0 1 0
    outer loop
      vertex 3 0.5 1.9
      vertex 3.25 0.5 0.125
      vertex 3 0.5 0.125
    endloop
  endfacet
  facet normal -1 0 0
    outer loop
      vertex 0.25 2.65 0.125
      vertex 0.25 2.9 1.9
      vertex 0.25 2.9 0.125
    endloop
  endfacet
  facet normal -1 -0 0
    outer loop
      vertex 0.25 2.9 1.9
      vertex 0.25 2.65 0.125
      vertex 0.25 2.65 1.9
    endloop
  endfacet
  facet normal -0 0 1
    outer loop
      vertex 0.25 2.9 1.9
      vertex 0.5 2.65 1.9
      vertex 0.5 2.9 1.9
    endloop
  endfacet
  facet normal 0 0 1
    outer loop
      vertex 0.5 2.65 1.9
      vertex 0.25 2.9 1.9
      vertex 0.25 2.65 1.9
    endloop
  endfacet
  facet normal 1 -0 0
    outer loop
      vertex 0.5 2.65 1.9
      vertex 0.5 2.9 0.125
      vertex 0.5 2.9 1.9
    endloop
  endfacet
  facet normal 1 0 0
    outer loop
      vertex 0.5 2.9 0.125
      vertex 0.5 2.65 1.9
      vertex 0.5 2.65 0.125
    endloop
  endfacet
  facet normal 0 -1 0
    outer loop
      vertex 0.25 2.65 0.125
      vertex 0.5 2.65 1.9
      vertex 0.25 2.65 1.9
    endloop
  endfacet
  facet normal 0 -1 -0
    outer loop
      vertex 0.5 2.65 1.9
      vertex 0.25 2.65 0.125
      vertex 0.5 2.65 0.125
    endloop
  endfacet
  facet normal 0 1 -0
    outer loop
      vertex 0.5 2.9 0.125
      vertex 0.25 2.9 1.9
      vertex 0.5 2.9 1.9
    endloop
  endfacet
  facet normal 0 1 0
    outer loop
      vertex 0.25 2.9 1.9
      vertex 0.5 2.9 0.125
      vertex 0.25 2.9 0.125
    endloop
  endfacet
  facet normal -1 0 0
    outer loop
      vertex 3 2.65 0.125
      vertex 3 2.9 1.9
      vertex 3 2.9 0.125
    endloop
  endfacet
  facet normal -1 -0 0
    outer loop
      vertex 3 2.9 1.9
      vertex 3 2.65 0.125
      vertex 3 2.65 1.9
    endloop
  endfacet
  facet normal -0 0 1
    outer loop
      vertex 3 2.9 1.9
      vertex 3.25 2.65 1.9
      vertex 3.25 2.9 1.9
    endloop
  endfacet
  facet normal 0 0 1
    outer loop
      vertex 3.25 2.65 1.9
      vertex 3 2.9 1.9
      vertex 3 2.65 1.9
    endloop
  endfacet
  facet normal 1 -0 0
    outer loop
      vertex 3.25 2.65 1.9
      vertex 3.25 2.9 0.125
      vertex 3.25 2.9 1.9
    endloop
  endfacet
  facet normal 1 0 0
    outer loop
      vertex 3.25 2.9 0.125
      vertex 3.25 2.65 1.9
      vertex 3.25 2.65 0.125
    endloop
  endfacet
  facet normal 0 1 -0
    outer loop
      vertex 3.25 2.9 0.125
      vertex 3 2.9 1.9
      vertex 3.25 2.9 1.9
    endloop
  endfacet
  facet normal 0 1 0
    outer loop
      vertex 3 2.9 1.9
      vertex 3.25 2.9 0.125
      vertex 3 2.9 0.125
    endloop
  endfacet
  facet normal 0 -1 0
    outer loop
      vertex 3 2.65 0.125
      vertex 3.25 2.65 1.9
      vertex 3 2.65 1.9
    endloop
  endfacet
  facet normal 0 -1 -0
    outer loop
      vertex 3.25 2.65 1.9
      vertex 3 2.65 0.125
      vertex 3.25 2.65 0.125
    endloop
  endfacet
  facet normal -1 0 0
    outer loop
      vertex 4.625 2.875 0.125
      vertex 4.625 3.125 2.25
      vertex 4.625 3.125 0.125
    endloop
  endfacet
  facet normal -1 -0 0
    outer loop
      vertex 4.625 3.125 2.25
      vertex 4.625 2.875 0.125
      vertex 4.625 2.875 2.25
    endloop
  endfacet
  facet normal 0 -1 0
    outer loop
      vertex 4.625 2.875 0.125
      vertex 4.875 2.875 2.25
      vertex 4.625 2.875 2.25
    endloop
  endfacet
  facet normal 0 -1 -0
    outer loop
      vertex 4.875 2.875 2.25
      vertex 4.625 2.875 0.125
      vertex 4.875 2.875 0.125
    endloop
  endfacet
  facet normal -1 0 0
    outer loop
      vertex 4.625 0.125 0.125
      vertex 4.625 0.375 2.25
      vertex 4.625 0.375 0.125
    endloop
  endfacet
  facet normal -1 -0 0
    outer loop
      vertex 4.625 0.375 2.25
      vertex 4.625 0.125 0.125
      vertex 4.625 0.125 2.25
    endloop
  endfacet
  facet normal 0 1 -0
    outer loop
      vertex 4.875 0.375 0.125
      vertex 4.625 0.375 2.25
      vertex 4.875 0.375 2.25
    endloop
  endfacet
  facet normal 0 1 0
    outer loop
      vertex 4.625 0.375 2.25
      vertex 4.875 0.375 0.125
      vertex 4.625 0.375 0.125
    endloop
  endfacet
  facet normal 1 -0 0
    outer loop
      vertex 0.375 2.875 2.25
      vertex 0.375 3.125 2.125
      vertex 0.375 3.125 2.25
    endloop
  endfacet
  facet normal 1 0 0
    outer loop
      vertex 0.375 3.125 2.125
      vertex 0.375 2.875 2.25
      vertex 0.375 2.875 2.125
    endloop
  endfacet
  facet normal 0 0 -1
    outer loop
      vertex 0.125 2.875 2.125
      vertex 0.375 3.125 2.125
      vertex 0.375 2.875 2.125
    endloop
  endfacet
  facet normal -0 0 -1
    outer loop
      vertex 0.375 3.125 2.125
      vertex 0.125 2.875 2.125
      vertex 0.125 3.125 2.125
    endloop
  endfacet
  facet normal 0 -1 0
    outer loop
      vertex 0.125 2.875 2.125
      vertex 0.375 2.875 2.25
      vertex 0.125 2.875 2.25
    endloop
  endfacet
  facet normal 0 -1 -0
    outer loop
      vertex 0.375 2.875 2.25
      vertex 0.125 2.875 2.125
      vertex 0.375 2.875 2.125
    endloop
  endfacet
endsolid OpenSCAD_Model
